<?xml version="1.0" encoding="UTF-8"?>
<svg version="1.1" xmlns="http://www.w3.org/2000/svg" width="255" height="256">
<path d="M0 0 C0.8088401 -0.00367669 1.6176802 -0.00735338 2.45103061 -0.01114148 C5.17080046 -0.02218513 7.89053212 -0.02602334 10.61032104 -0.02983093 C12.55672833 -0.03609514 14.50313441 -0.0427419 16.44953918 -0.04974365 C22.85061814 -0.07079395 29.25169736 -0.08114788 35.65280151 -0.09111023 C37.85633227 -0.09515761 40.0598629 -0.09927453 42.2633934 -0.10346031 C52.61695186 -0.12251518 62.97050319 -0.13674483 73.32407582 -0.14507228 C85.27370651 -0.1548421 97.22315183 -0.18115383 109.17271721 -0.22157317 C118.40936157 -0.2517432 127.64595282 -0.26654206 136.88264549 -0.26985329 C142.39888915 -0.27220304 147.91493486 -0.28115367 153.43112564 -0.30631447 C158.62351777 -0.32961513 163.81558189 -0.33382029 169.00801277 -0.32355309 C170.91028879 -0.32305808 172.81258106 -0.32936809 174.71480751 -0.34310913 C193.09585244 -0.46842126 193.09585244 -0.46842126 200.14498901 4.14717102 C200.9429187 4.62799133 201.74084839 5.10881165 202.56295776 5.60420227 C210.57589808 11.74214993 215.93342162 18.51246885 219.14498901 28.14717102 C219.24716427 30.78677459 219.29279765 33.40025208 219.29216003 36.04014587 C219.29583672 36.85306953 219.29951341 37.66599318 219.30330151 38.50355089 C219.31434546 41.23714024 219.31818342 43.97069159 219.32199097 46.70429993 C219.32825515 48.6605593 219.33490191 50.61681747 219.34190369 52.57307434 C219.3593191 57.89564115 219.36986726 63.21819897 219.37810922 68.54078722 C219.38325898 71.86644554 219.38933477 75.19210107 219.39562035 78.51775742 C219.41467525 88.92364162 219.4289049 99.32951871 219.43723232 109.73541701 C219.44700222 121.74560782 219.47331415 133.7556142 219.51373321 145.76574004 C219.54390273 155.04909313 219.55870205 164.33239338 219.56201333 173.61579454 C219.56436313 179.15998346 219.57331445 184.70397542 219.5984745 190.24811172 C219.62177429 195.4667682 219.62598066 200.68509831 219.61571312 205.90379333 C219.61521809 207.81574464 219.62152872 209.72771211 219.63526917 211.63961411 C219.76056824 230.11293853 219.76056824 230.11293853 215.14498901 237.14717102 C214.6641687 237.94510071 214.18334839 238.7430304 213.68795776 239.56513977 C207.5500101 247.57808009 200.77969119 252.93560363 191.14498901 256.14717102 C188.52943799 256.25566193 185.93973335 256.30808614 183.32362366 256.31452942 C182.51831138 256.3203228 181.71299911 256.32611619 180.88328344 256.33208513 C178.17519568 256.3501732 175.4671288 256.36102491 172.75900269 256.3717804 C170.82070729 256.38295466 168.88241383 256.39446795 166.94412231 256.40629578 C160.56709488 256.44288346 154.19004759 256.46808488 147.81295776 256.49092102 C146.18433095 256.49683982 146.18433095 256.49683982 144.52280259 256.50287819 C134.27682883 256.53931134 124.03084815 256.57074862 113.78483105 256.59198761 C100.69346571 256.61952711 87.60264423 256.67021602 74.51150531 256.75246191 C65.30026741 256.80836317 56.08917651 256.83723993 46.87777501 256.84646082 C41.38074313 256.85270294 35.88434859 256.87068755 30.38750267 256.91784668 C25.20722754 256.96173665 20.02793334 256.97193289 14.84750366 256.95721817 C12.9553597 256.95754499 11.06317151 256.96967713 9.17119789 256.9950676 C-4.63883938 257.17047849 -15.23202054 255.33046459 -25.91751099 245.77217102 C-29.28207864 241.99977699 -31.70567057 237.7034507 -33.85501099 233.14717102 C-34.20100657 232.44432354 -34.54700214 231.74147606 -34.90348244 231.01733017 C-36.12681471 227.32731128 -36.13814844 223.85636684 -36.12243652 220.01368713 C-36.12696764 219.19905463 -36.13149875 218.38442213 -36.13616717 217.54510379 C-36.14881887 214.81767517 -36.14719029 212.09044604 -36.14553833 209.36299133 C-36.15152316 207.40643558 -36.1583286 205.44988219 -36.16589355 203.49333191 C-36.18356694 198.17913097 -36.18824955 192.86499443 -36.18952513 187.55076694 C-36.19094671 184.22944786 -36.19521648 180.90814515 -36.20051956 177.58683014 C-36.21902539 165.99625611 -36.22718962 154.40572809 -36.22561646 142.81513977 C-36.22441542 132.01731124 -36.24550892 121.21968273 -36.27710378 110.4219048 C-36.30327383 101.14699593 -36.31398342 91.87215234 -36.31270564 82.59720683 C-36.31219615 77.05976632 -36.3178719 71.52250348 -36.33906174 65.98509979 C-36.35845586 60.774609 -36.3585604 55.56446512 -36.34402847 50.35396194 C-36.34194064 48.44523994 -36.34663975 46.53649616 -36.35874939 44.62781143 C-36.46813819 26.18673432 -36.46813819 26.18673432 -31.85501099 19.14717102 C-31.37419067 18.34924133 -30.89337036 17.55131165 -30.39797974 16.72920227 C-22.4383208 6.3380625 -13.35366937 -0.00324183 0 0 Z M16.50045776 52.68232727 C13.35704303 56.79294653 12.0235007 58.83107035 11.9838562 63.96064758 C11.97424866 64.96218872 11.96464111 65.96372986 11.95474243 66.99562073 C11.95049255 68.08203857 11.94624268 69.16845642 11.94186401 70.28779602 C11.93616394 71.40273437 11.93046387 72.51767273 11.92459106 73.66639709 C11.91513083 76.03025867 11.90860303 78.39413349 11.90475464 80.75801086 C11.89506613 84.36843545 11.86405871 87.9782868 11.83248901 91.58857727 C11.82595738 93.8841468 11.82070754 96.17972041 11.81686401 98.47529602 C11.80451721 99.55361694 11.79217041 100.63193787 11.77944946 101.74293518 C11.79826826 108.10229774 12.2309157 112.79519051 16.57467651 117.79170227 C22.74378815 122.77701141 28.64000114 122.30612015 36.23092651 122.31513977 C37.69364487 122.32013237 37.69364487 122.32013237 39.18591309 122.32522583 C41.24518361 122.33027957 43.30446229 122.33263464 45.36373901 122.33247375 C48.50189816 122.33465843 51.63970458 122.35282578 54.77780151 122.3717804 C56.78300865 122.37471506 58.78821745 122.37669937 60.79342651 122.37763977 C61.72593231 122.38482529 62.65843811 122.3920108 63.61920166 122.39941406 C72.44399644 122.40251828 72.44399644 122.40251828 80.10592651 118.49092102 C80.57256714 117.88248352 81.03920776 117.27404602 81.51998901 116.64717102 C82.00209839 116.03873352 82.48420776 115.43029602 82.98092651 114.80342102 C85.08881188 111.80428211 85.28219777 109.88863601 85.32199097 106.25776672 C85.3348262 105.23943253 85.34766144 104.22109833 85.36088562 103.17190552 C85.36827255 102.06675095 85.37565948 100.96159637 85.38327026 99.82295227 C85.39537788 98.12080818 85.39537788 98.12080818 85.4077301 96.38427734 C85.4215811 93.97753939 85.43229869 91.57078171 85.44015503 89.16401672 C85.45733772 85.49200363 85.50121275 81.8208977 85.54537964 78.14912415 C85.55550902 75.81124014 85.56402436 73.47334848 85.57077026 71.13545227 C85.59703239 69.49290215 85.59703239 69.49290215 85.62382507 67.81716919 C85.60561737 61.38132568 85.23582704 57.23886623 81.14498901 52.14717102 C75.30277645 47.51764379 70.00162929 47.57248665 62.73483276 47.65107727 C61.64916519 47.64962204 60.56349762 47.64816681 59.44493103 47.64666748 C57.15799262 47.64832202 54.87104255 47.65983318 52.584198 47.68061829 C49.09030755 47.70960615 45.5979328 47.70121005 42.10397339 47.68818665 C39.8767525 47.69442368 37.64953638 47.70281434 35.42233276 47.71357727 C34.38157089 47.71064163 33.34080902 47.70770599 32.26850891 47.7046814 C26.0588926 47.78521781 21.25251382 48.24632244 16.50045776 52.68232727 Z M99.74069214 55.1566925 C97.25078476 60.16297622 97.57279914 65.52153752 97.61373901 70.99482727 C97.60799866 72.68991676 97.60799866 72.68991676 97.60214233 74.41925049 C97.59942863 76.8003275 97.60675164 79.1814346 97.62350464 81.56245422 C97.64494027 85.20139605 97.62367244 88.83836798 97.59811401 92.47724915 C97.60075699 94.79561286 97.60588135 97.11397536 97.61373901 99.43232727 C97.60564209 100.5168367 97.59754517 101.60134613 97.58920288 102.71871948 C97.66516528 108.85198567 98.04652181 112.48162327 102.14498901 117.14717102 C108.17295476 122.86601032 114.35703563 122.30578393 122.23092651 122.31513977 C123.69364487 122.32013237 123.69364487 122.32013237 125.18591309 122.32522583 C127.24518361 122.33027957 129.30446229 122.33263464 131.36373901 122.33247375 C134.50189816 122.33465843 137.63970458 122.35282578 140.77780151 122.3717804 C142.78300865 122.37471506 144.78821745 122.37669937 146.79342651 122.37763977 C147.72593231 122.38482529 148.65843811 122.3920108 149.61920166 122.39941406 C158.42671519 122.39309268 158.42671519 122.39309268 166.10592651 118.52607727 C166.57256714 117.92666321 167.03920776 117.32724915 167.51998901 116.70967102 C168.00209839 116.11283508 168.48420776 115.51599915 168.98092651 114.90107727 C171.09517271 111.71551841 171.28052337 108.93233521 171.32199097 105.22016907 C171.3348262 104.21870346 171.34766144 103.21723785 171.36088562 102.1854248 C171.36827255 101.10416824 171.37565948 100.02291168 171.38327026 98.90888977 C171.39537788 97.23860466 171.39537788 97.23860466 171.4077301 95.53457642 C171.42156629 93.17669734 171.43229053 90.81879828 171.44015503 88.46089172 C171.45737182 84.85918668 171.50126401 81.25839854 171.54537964 77.65693665 C171.55550634 75.36592777 171.56402251 73.07491109 171.57077026 70.78388977 C171.59703239 69.17111397 171.59703239 69.17111397 171.62382507 67.52575684 C171.60607624 61.39269644 171.256425 57.80529297 167.14498901 53.14717102 C162.93886281 49.3513986 159.94520614 48.03445962 154.32565308 47.97016907 C152.85832733 47.95091621 152.85832733 47.95091621 151.36135864 47.93127441 C150.30511292 47.92388748 149.24886719 47.91650055 148.16061401 47.90888977 C147.07165833 47.90081802 145.98270264 47.89274628 144.86074829 47.88442993 C142.55414419 47.87059328 140.24751965 47.85986925 137.94088745 47.852005 C134.42258634 47.83480593 130.90522823 47.79091631 127.38717651 47.7467804 C125.14499592 47.73665205 122.90280734 47.72813639 120.66061401 47.72138977 C119.61246521 47.70388168 118.56431641 47.6863736 117.48440552 47.66833496 C109.53247536 47.69181427 104.91392848 48.68121683 99.74069214 55.1566925 Z M17.18405151 137.76826477 C16.71741089 138.36767883 16.25077026 138.9670929 15.76998901 139.58467102 C15.28787964 140.18150696 14.80577026 140.7783429 14.30905151 141.39326477 C12.19480532 144.57882364 12.00945465 147.36200683 11.96798706 151.07417297 C11.95515182 152.07563858 11.94231659 153.07710419 11.92909241 154.10891724 C11.92170547 155.1901738 11.91431854 156.27143036 11.90670776 157.38545227 C11.89863602 158.49897568 11.89056427 159.61249908 11.88224792 160.75976562 C11.86841173 163.1176447 11.8576875 165.47554376 11.849823 167.83345032 C11.8326062 171.43515536 11.78871402 175.0359435 11.74459839 178.6374054 C11.73447169 180.92841427 11.72595551 183.21943095 11.71920776 185.51045227 C11.70169968 186.58563614 11.68419159 187.66082001 11.66615295 188.76858521 C11.68390178 194.9016456 12.03355303 198.48904907 16.14498901 203.14717102 C20.35111521 206.94294345 23.34477188 208.25988242 28.96432495 208.32417297 C29.94254211 208.33700821 30.92075928 208.34984344 31.92861938 208.36306763 C32.98486511 208.37045456 34.04111084 208.37784149 35.12936401 208.38545227 C36.76279755 208.39755989 36.76279755 208.39755989 38.42922974 208.40991211 C40.73583384 208.42374876 43.04245838 208.43447279 45.34909058 208.44233704 C48.86739169 208.45953611 52.3847498 208.50342573 55.90280151 208.54756165 C58.14498211 208.55768999 60.38717069 208.56620565 62.62936401 208.57295227 C63.67751282 208.59046036 64.72566162 208.60796844 65.80557251 208.62600708 C72.13402418 208.60732134 76.12455786 208.14143122 81.14498901 204.14717102 C85.87401368 198.22772677 85.73141328 192.67581306 85.67623901 185.29951477 C85.68006592 184.16945511 85.68389282 183.03939545 85.68783569 181.87509155 C85.69054939 179.49401454 85.68322639 177.11290744 85.66647339 174.73188782 C85.64503776 171.09294599 85.66630559 167.45597406 85.69186401 163.8170929 C85.68922103 161.49872918 85.68409668 159.18036668 85.67623901 156.86201477 C85.68433594 155.77750534 85.69243286 154.69299591 85.70077515 153.57562256 C85.62481274 147.44235637 85.24345622 143.81271877 81.14498901 139.14717102 C75.11702327 133.42833172 68.93294239 133.98855811 61.05905151 133.97920227 C60.08390594 133.97587387 59.10876038 133.97254547 58.10406494 133.96911621 C56.04479442 133.96406247 53.98551573 133.96170741 51.92623901 133.96186829 C48.78807986 133.95968361 45.65027345 133.94151626 42.51217651 133.92256165 C40.50696938 133.91962698 38.50176058 133.91764267 36.49655151 133.91670227 C35.56404572 133.90951675 34.63153992 133.90233124 33.67077637 133.89492798 C24.86326284 133.90124936 24.86326284 133.90124936 17.18405151 137.76826477 Z M98.14498901 137.14717102 C97.64483948 139.68975565 97.64483948 139.68975565 98.14498901 142.14717102 C99.91052401 144.32707229 99.91052401 144.32707229 102.11618042 144.3742218 C103.29446411 144.35851135 103.29446411 144.35851135 104.49655151 144.34248352 C105.34733276 144.33603821 106.19811401 144.3295929 107.07467651 144.32295227 C107.96412964 144.30619446 108.85358276 144.28943665 109.76998901 144.27217102 C111.11577026 144.25863586 111.11577026 144.25863586 112.48873901 144.24482727 C114.70775487 144.22122072 116.92623979 144.18829412 119.14498901 144.14717102 C119.12927856 145.00995667 119.11356812 145.87274231 119.09738159 146.76167297 C119.04622947 149.96526369 119.00862741 153.16864617 118.98019409 156.37251282 C118.96511504 157.75865021 118.94464851 159.14473996 118.91867065 160.53071594 C118.88225186 162.52375248 118.86685883 164.51713825 118.85202026 166.51045227 C118.83630981 167.70968323 118.82059937 168.90891418 118.80441284 170.14448547 C118.90376774 173.11901405 118.90376774 173.11901405 120.46798706 175.07368469 C122.2531727 176.44834702 122.2531727 176.44834702 125.26998901 175.95967102 C126.21873901 175.69154602 127.16748901 175.42342102 128.14498901 175.14717102 C129.71617404 172.00480098 129.35005432 168.63445357 129.38327026 165.18232727 C129.39134201 164.39321457 129.39941376 163.60410187 129.4077301 162.79107666 C129.42156648 161.120816 129.43229064 159.45052712 129.44015503 157.78022766 C129.45739937 155.22296429 129.50129053 152.66698348 129.54537964 150.11006165 C129.55550391 148.48832637 129.56402084 146.8665801 129.57077026 145.24482727 C129.58827835 144.47912918 129.60578644 143.71343109 129.62382507 142.92453003 C129.60801213 138.68153246 129.60801213 138.68153246 127.44845581 135.16596985 C124.74943581 133.97222205 122.81329557 133.75961558 119.86373901 133.74873352 C118.8569812 133.74486633 117.85022339 133.74099915 116.81295776 133.73701477 C115.76752808 133.74861633 114.72209839 133.7602179 113.64498901 133.77217102 C112.07684448 133.75476868 112.07684448 133.75476868 110.47702026 133.73701477 C108.96688354 133.74281555 108.96688354 133.74281555 107.42623901 133.74873352 C106.50907104 133.75211731 105.59190308 133.7555011 104.64694214 133.75898743 C101.68071416 134.2192043 100.29182296 135.07400295 98.14498901 137.14717102 Z M140.14498901 137.14717102 C140.48726473 140.11782612 140.48726473 140.11782612 141.14498901 143.14717102 C143.44152601 144.29543952 144.72812069 144.26278277 147.27780151 144.24482727 C148.00370483 144.24232971 148.72960815 144.23983215 149.47750854 144.23725891 C150.3990271 144.22815491 151.32054565 144.2190509 152.26998901 144.20967102 C156.66311401 144.17873352 156.66311401 144.17873352 161.14498901 144.14717102 C161.14498901 151.40717102 161.14498901 158.66717102 161.14498901 166.14717102 C152.83248901 166.08467102 152.83248901 166.08467102 150.22579956 166.05708313 C149.20159912 166.05333679 149.20159912 166.05333679 148.15670776 166.04951477 C147.46021118 166.04427795 146.7637146 166.03904114 146.04611206 166.03364563 C143.92000933 166.07821111 143.92000933 166.07821111 141.14498901 167.14717102 C140.3778205 169.99795193 140.3778205 169.99795193 140.14498901 173.14717102 C141.21093207 174.94443734 141.21093207 174.94443734 143.14498901 176.14717102 C145.80247985 176.60975785 145.80247985 176.60975785 148.80123901 176.54560852 C149.90596558 176.54947571 151.01069214 176.5533429 152.14889526 176.55732727 C153.87946167 176.53992493 153.87946167 176.53992493 155.64498901 176.52217102 C156.79869995 176.53377258 157.95241089 176.54537415 159.14108276 176.55732727 C160.24580933 176.55346008 161.35053589 176.5495929 162.48873901 176.54560852 C163.50129761 176.54222473 164.5138562 176.53884094 165.55709839 176.53535461 C168.10917297 176.30825371 168.10917297 176.30825371 169.97140503 175.12617493 C171.84547987 171.96593972 171.59233374 168.6566221 171.57858276 165.08467102 C171.58644554 163.90312439 171.58644554 163.90312439 171.59446716 162.69770813 C171.60088653 161.03341348 171.59955142 159.36907345 171.59103394 157.70478821 C171.5825189 155.156117 171.611291 152.60968348 171.64303589 150.06123352 C171.64464787 148.44404669 171.64407043 146.82685589 171.64108276 145.20967102 C171.65231674 144.44710999 171.66355072 143.68454895 171.67512512 142.89888 C171.63242886 139.66358977 171.59677014 137.67281159 169.44406128 135.16816711 C166.74669062 133.9702905 164.81340082 133.75961597 161.86373901 133.74873352 C160.8569812 133.74486633 159.85022339 133.74099915 158.81295776 133.73701477 C157.76752808 133.74861633 156.72209839 133.7602179 155.64498901 133.77217102 C154.07684448 133.75476868 154.07684448 133.75476868 152.47702026 133.73701477 C150.96688354 133.74281555 150.96688354 133.74281555 149.42623901 133.74873352 C148.50907104 133.75211731 147.59190308 133.7555011 146.64694214 133.75898743 C143.72772052 134.21191115 142.33464592 135.21297409 140.14498901 137.14717102 Z M99.48239136 167.12739563 C97.36142634 170.33052516 97.71789898 173.74760983 97.74655151 177.46357727 C97.74368134 178.27584274 97.74081116 179.08810822 97.737854 179.92498779 C97.73581381 181.64057615 97.74134061 183.35618779 97.75387573 185.07173157 C97.76995147 187.70352393 97.75401565 190.33378542 97.73483276 192.9655304 C97.7368148 194.63154942 97.74065765 196.29756749 97.74655151 197.96357727 C97.74047882 198.75317337 97.73440613 199.54276947 97.72814941 200.35629272 C97.72471754 202.80364931 97.72471754 202.80364931 98.14498901 206.14717102 C102.81744276 209.26214018 107.65084655 208.47567959 113.14498901 208.45967102 C114.80401245 208.48384094 114.80401245 208.48384094 116.49655151 208.50849915 C118.08596558 208.50946594 118.08596558 208.50946594 119.70748901 208.51045227 C121.16348511 208.51492371 121.16348511 208.51492371 122.64889526 208.51948547 C125.18516764 208.33994817 125.18516764 208.33994817 126.99655151 206.78462219 C128.41520481 205.12902999 128.41520481 205.12902999 127.95748901 202.58467102 C127.29871869 200.0027583 127.29871869 200.0027583 125.14498901 198.14717102 C122.23563322 198.00199359 119.42504301 197.96086306 116.51998901 198.02217102 C115.71819214 198.03119446 114.91639526 198.0402179 114.09030151 198.04951477 C112.10840379 198.07310879 110.12665921 198.10898037 108.14498901 198.14717102 C108.16593628 197.31991516 108.18688354 196.4926593 108.20846558 195.64033508 C108.29160521 191.89273732 108.34364432 188.14533353 108.39498901 184.39717102 C108.42850464 183.0952179 108.46202026 181.79326477 108.49655151 180.45185852 C108.51588745 178.57627258 108.51588745 178.57627258 108.53561401 176.66279602 C108.55656128 175.51069641 108.57750854 174.3585968 108.59909058 173.17158508 C108.37926861 170.05330921 108.37926861 170.05330921 106.30807495 167.73994446 C103.745138 165.85274348 102.30385204 165.46393533 99.48239136 167.12739563 Z M139.14498901 200.14717102 C138.64498901 203.14717102 138.64498901 203.14717102 139.14498901 206.14717102 C144.01625219 209.3946798 149.42088929 208.47502537 155.14498901 208.45967102 C156.34639526 208.4757843 157.54780151 208.49189758 158.78561401 208.50849915 C159.93545776 208.50914368 161.08530151 208.50978821 162.26998901 208.51045227 C163.32444214 208.51343323 164.37889526 208.51641418 165.46530151 208.51948547 C168.15648365 208.35458019 168.15648365 208.35458019 170.02389526 206.81977844 C171.45559394 205.04874638 171.45559394 205.04874638 170.95748901 202.02217102 C170.68936401 201.07342102 170.42123901 200.12467102 170.14498901 199.14717102 C165.81064351 196.97999827 159.96828377 197.96220741 155.20748901 197.95967102 C154.00157104 197.94742493 152.79565308 197.93517883 151.55319214 197.92256165 C150.39883667 197.92062805 149.2444812 197.91869446 148.05514526 197.91670227 C146.99432739 197.91259338 145.93350952 197.9084845 144.84054565 197.9042511 C141.9218105 197.95089282 141.9218105 197.95089282 139.14498901 200.14717102 Z " fill="#630083" transform="translate(35.855010986328125,-0.1471710205078125)"/>
<path d="M0 0 C1.39659851 -0.00934319 1.39659851 -0.00934319 2.82141113 -0.01887512 C3.82458374 -0.00966537 4.82775635 -0.00045563 5.86132812 0.0090332 C6.89318237 0.0085347 7.92503662 0.00803619 8.98815918 0.00752258 C11.17034836 0.00986368 13.35254021 0.01959424 15.53466797 0.03613281 C18.87947677 0.05972206 22.22348856 0.05669427 25.56835938 0.05004883 C27.68685372 0.0556256 29.8053447 0.06273548 31.92382812 0.0715332 C32.92700073 0.0706218 33.93017334 0.06971039 34.96374512 0.06877136 C35.89481079 0.07830338 36.82587646 0.08783539 37.78515625 0.09765625 C38.60439575 0.10226364 39.42363525 0.10687103 40.2677002 0.11161804 C42.39257812 0.37231445 42.39257812 0.37231445 45.39257812 2.37231445 C45.77352905 4.49755859 45.77352905 4.49755859 45.78076172 7.1574707 C45.7902182 8.15190186 45.79967468 9.14633301 45.80941772 10.17089844 C45.80334503 11.24799072 45.79727234 12.32508301 45.79101562 13.43481445 C45.7938858 14.53704346 45.79675598 15.63927246 45.79971313 16.77490234 C45.80175731 19.10848503 45.79620288 21.44208472 45.78369141 23.77563477 C45.76764347 27.35772841 45.78352895 30.93869361 45.80273438 34.52075195 C45.80075201 36.78377529 45.79690847 39.04679792 45.79101562 41.30981445 C45.80012466 42.92545288 45.80012466 42.92545288 45.80941772 44.57373047 C45.79996124 45.56816162 45.79050476 46.56259277 45.78076172 47.5871582 C45.77837494 48.4649292 45.77598816 49.3427002 45.77352905 50.24707031 C45.64781525 50.94840088 45.52210144 51.64973145 45.39257812 52.37231445 C42.21901189 54.48802527 41.42042196 54.62652797 37.78515625 54.64697266 C36.85409058 54.65650467 35.9230249 54.66603668 34.96374512 54.67585754 C33.96057251 54.67494614 32.9573999 54.67403473 31.92382812 54.6730957 C30.37604675 54.67952339 30.37604675 54.67952339 28.79699707 54.68608093 C26.61483494 54.69182531 24.43265366 54.69232371 22.25048828 54.68798828 C18.90559376 54.68482676 15.5615821 54.70829211 12.21679688 54.73364258 C10.09830841 54.73591533 7.97981756 54.73661918 5.86132812 54.7355957 C4.85815552 54.74480545 3.85498291 54.7540152 2.82141113 54.76350403 C1.89034546 54.75727524 0.95927979 54.75104645 0 54.74462891 C-0.8192395 54.74525833 -1.638479 54.74588776 -2.48254395 54.74653625 C-4.60742188 54.37231445 -4.60742188 54.37231445 -6.37112427 53.14274597 C-7.97009446 50.85295167 -7.98767164 49.45535834 -7.99560547 46.6730957 C-8.00506195 45.72200928 -8.01451843 44.77092285 -8.02426147 43.79101562 C-8.01818878 42.76596924 -8.01211609 41.74092285 -8.00585938 40.68481445 C-8.00872955 39.63076416 -8.01159973 38.57671387 -8.01455688 37.49072266 C-8.01659901 35.26146915 -8.01105886 33.03219778 -7.99853516 30.80297852 C-7.98248418 27.38557977 -7.99837946 23.9693638 -8.01757812 20.55200195 C-8.01559572 18.38793684 -8.0117521 16.22387246 -8.00585938 14.05981445 C-8.01193207 13.03476807 -8.01800476 12.00972168 -8.02426147 10.95361328 C-8.01007675 9.52698364 -8.01007675 9.52698364 -7.99560547 8.0715332 C-7.99321869 7.23452881 -7.99083191 6.39752441 -7.9883728 5.53515625 C-7.60742188 3.37231445 -7.60742188 3.37231445 -6.37112427 1.60188293 C-4.10568213 0.02252563 -2.75062993 -0.00211332 0 0 Z " fill="#620083" transform="translate(65.607421875,57.627685546875)"/>
<path d="M0 0 C0.93106567 -0.00945648 1.86213135 -0.01891296 2.82141113 -0.02865601 C4.32617004 -0.01954697 4.32617004 -0.01954697 5.86132812 -0.01025391 C7.4091095 -0.01455917 7.4091095 -0.01455917 8.98815918 -0.01895142 C11.17033436 -0.02099342 13.35252778 -0.01545411 15.53466797 -0.00292969 C18.87964713 0.01312154 22.22341791 -0.00277432 25.56835938 -0.02197266 C27.68685163 -0.01999025 29.80534314 -0.01614663 31.92382812 -0.01025391 C32.92700073 -0.0163266 33.93017334 -0.02239929 34.96374512 -0.02865601 C36.36034363 -0.01447128 36.36034363 -0.01447128 37.78515625 0 C38.60439575 0.00238678 39.42363525 0.00477356 40.2677002 0.00723267 C42.96397836 0.49062498 43.83276941 1.14723158 45.39257812 3.38818359 C45.77352905 5.59571838 45.77352905 5.59571838 45.78076172 8.19506836 C45.7902182 9.16940323 45.79967468 10.1437381 45.80941772 11.14759827 C45.80334503 12.19765549 45.79727234 13.24771271 45.79101562 14.32958984 C45.7938858 15.40820786 45.79675598 16.48682587 45.79971313 17.59812927 C45.8017552 19.87865728 45.79621542 22.15920274 45.78369141 24.43969727 C45.76762486 27.94050006 45.783544 31.44015096 45.80273438 34.94091797 C45.80075228 37.15381115 45.79690929 39.36670362 45.79101562 41.57958984 C45.80012466 43.15771202 45.80012466 43.15771202 45.80941772 44.76771545 C45.79996124 45.73889816 45.79050476 46.71008087 45.78076172 47.71069336 C45.77837494 48.56768326 45.77598816 49.42467316 45.77352905 50.30763245 C45.64781525 50.99421432 45.52210144 51.6807962 45.39257812 52.38818359 C42.21901189 54.50389441 41.42042196 54.64239711 37.78515625 54.6628418 C36.85409058 54.67237381 35.9230249 54.68190582 34.96374512 54.69172668 C33.96057251 54.69081528 32.9573999 54.68990387 31.92382812 54.68896484 C30.37604675 54.69539253 30.37604675 54.69539253 28.79699707 54.70195007 C26.61483494 54.70769445 24.43265366 54.70819285 22.25048828 54.70385742 C18.90559376 54.7006959 15.5615821 54.72416125 12.21679688 54.74951172 C10.09830841 54.75178447 7.97981756 54.75248832 5.86132812 54.75146484 C4.85815552 54.76067459 3.85498291 54.76988434 2.82141113 54.77937317 C1.89034546 54.77314438 0.95927979 54.76691559 0 54.76049805 C-0.8192395 54.76112747 -1.638479 54.7617569 -2.48254395 54.7624054 C-4.60742188 54.38818359 -4.60742188 54.38818359 -6.37112427 53.15861511 C-7.97009446 50.86882081 -7.98767164 49.47122748 -7.99560547 46.68896484 C-8.00506195 45.73787842 -8.01451843 44.78679199 -8.02426147 43.80688477 C-8.01818878 42.78183838 -8.01211609 41.75679199 -8.00585938 40.70068359 C-8.00872955 39.6466333 -8.01159973 38.59258301 -8.01455688 37.5065918 C-8.01659901 35.27733829 -8.01105886 33.04806692 -7.99853516 30.81884766 C-7.98248418 27.40144891 -7.99837946 23.98523294 -8.01757812 20.56787109 C-8.01559572 18.40380598 -8.0117521 16.2397416 -8.00585938 14.07568359 C-8.01193207 13.05063721 -8.01800476 12.02559082 -8.02426147 10.96948242 C-8.01007675 9.54285278 -8.01007675 9.54285278 -7.99560547 8.08740234 C-7.99321869 7.25039795 -7.99083191 6.41339355 -7.9883728 5.55102539 C-7.60742188 3.38818359 -7.60742188 3.38818359 -6.37112427 1.6187439 C-4.1083276 0.03995841 -2.74836536 0.00800711 0 0 Z " fill="#620083" transform="translate(65.607421875,143.61181640625)"/>
<path d="M0 0 C0.93106567 -0.00953201 1.86213135 -0.01906403 2.82141113 -0.02888489 C3.82458374 -0.02797348 4.82775635 -0.02706207 5.86132812 -0.02612305 C6.89318237 -0.03040817 7.92503662 -0.0346933 8.98815918 -0.03910828 C11.17032131 -0.04485265 13.35250259 -0.04535105 15.53466797 -0.04101562 C18.87956249 -0.0378541 22.22357415 -0.06131945 25.56835938 -0.08666992 C27.68684784 -0.08894268 29.80533869 -0.08964652 31.92382812 -0.08862305 C33.42858704 -0.10243767 33.42858704 -0.10243767 34.96374512 -0.11653137 C35.89481079 -0.11030258 36.82587646 -0.10407379 37.78515625 -0.09765625 C38.60439575 -0.09828568 39.42363525 -0.0989151 40.2677002 -0.0995636 C42.39257812 0.2746582 42.39257812 0.2746582 44.15628052 1.50422668 C45.75525071 3.79402099 45.77282789 5.19161432 45.78076172 7.97387695 C45.7902182 8.92496338 45.79967468 9.8760498 45.80941772 10.85595703 C45.80334503 11.88100342 45.79727234 12.9060498 45.79101562 13.9621582 C45.7938858 15.0162085 45.79675598 16.07025879 45.79971313 17.15625 C45.80175526 19.38550351 45.79621511 21.61477488 45.78369141 23.84399414 C45.76764043 27.26139289 45.78353571 30.67760886 45.80273438 34.0949707 C45.80075197 36.25903582 45.79690835 38.4231002 45.79101562 40.5871582 C45.80012466 42.12472778 45.80012466 42.12472778 45.80941772 43.69335938 C45.79996124 44.6444458 45.79050476 45.59553223 45.78076172 46.57543945 C45.77837494 47.41244385 45.77598816 48.24944824 45.77352905 49.11181641 C45.39257812 51.2746582 45.39257812 51.2746582 44.15628052 53.0440979 C41.89348385 54.62288339 40.53352161 54.65483468 37.78515625 54.6628418 C36.85409058 54.67229828 35.9230249 54.68175476 34.96374512 54.6914978 C33.96057251 54.68542511 32.9573999 54.67935242 31.92382812 54.6730957 C30.37604675 54.67740097 30.37604675 54.67740097 28.79699707 54.68179321 C26.61482189 54.68383521 24.43262847 54.67829591 22.25048828 54.66577148 C18.90550912 54.64972025 15.56173834 54.66561611 12.21679688 54.68481445 C10.09830462 54.68283205 7.97981311 54.67898842 5.86132812 54.6730957 C4.35656921 54.68220474 4.35656921 54.68220474 2.82141113 54.6914978 C1.89034546 54.68204132 0.95927979 54.67258484 0 54.6628418 C-1.22885925 54.65926163 -1.22885925 54.65926163 -2.48254395 54.65560913 C-5.17882211 54.17221681 -6.04761316 53.51561022 -7.60742188 51.2746582 C-7.9883728 49.06712341 -7.9883728 49.06712341 -7.99560547 46.46777344 C-8.00506195 45.49343857 -8.01451843 44.5191037 -8.02426147 43.51524353 C-8.01818878 42.46518631 -8.01211609 41.41512909 -8.00585938 40.33325195 C-8.00872955 39.25463394 -8.01159973 38.17601593 -8.01455688 37.06471252 C-8.01659895 34.78418452 -8.01105917 32.50363906 -7.99853516 30.22314453 C-7.98246861 26.72234174 -7.99838775 23.22269084 -8.01757812 19.72192383 C-8.01559603 17.50903064 -8.01175304 15.29613818 -8.00585938 13.08325195 C-8.01193207 12.0311705 -8.01800476 10.97908905 -8.02426147 9.89512634 C-8.01480499 8.92394363 -8.00534851 7.95276093 -7.99560547 6.95214844 C-7.99321869 6.09515854 -7.99083191 5.23816864 -7.9883728 4.35520935 C-7.862659 3.66862747 -7.73694519 2.98204559 -7.60742188 2.2746582 C-4.43385564 0.15894738 -3.63526571 0.02044468 0 0 Z " fill="#620083" transform="translate(151.607421875,57.725341796875)"/>
</svg>
